<svg width="20" height="20" viewBox="0 0 20 20" fill="none" xmlns="http://www.w3.org/2000/svg">
<path d="M10.0002 0C7.28209 0 6.94334 0.013125 5.87959 0.058125C4.81146 0.110625 4.08896 0.27625 3.45146 0.52375C2.78425 0.775638 2.18 1.17001 1.68084 1.67938C1.17005 2.17737 0.775463 2.78196 0.525215 3.45C0.277715 4.0875 0.11209 4.81 0.0595898 5.87812C0.0114648 6.9425 0.00146484 7.28063 0.00146484 9.99875C0.00146484 12.7169 0.0145898 13.0556 0.0595898 14.1194C0.11209 15.1844 0.277715 15.91 0.525215 16.5475C0.777103 17.2147 1.17147 17.819 1.68084 18.3181C2.17884 18.8289 2.78342 19.2235 3.45146 19.4738C4.08896 19.7181 4.81459 19.8869 5.87959 19.9394C6.94396 19.9875 7.28209 19.9975 10.0002 19.9975C12.7183 19.9975 13.0571 19.9844 14.1208 19.9394C15.1858 19.8869 15.9115 19.7175 16.549 19.4738C17.2162 19.2219 17.8204 18.8275 18.3196 18.3181C18.831 17.8207 19.2257 17.2159 19.4752 16.5475C19.7196 15.91 19.8883 15.1844 19.9408 14.1194C19.989 13.055 19.999 12.7169 19.999 9.99875C19.999 7.28063 19.9858 6.94187 19.9408 5.87812C19.8883 4.81312 19.719 4.08375 19.4752 3.45C19.2233 2.78279 18.829 2.17854 18.3196 1.67938C17.8221 1.16793 17.2174 0.773237 16.549 0.52375C15.9115 0.27625 15.1858 0.110625 14.1208 0.058125C13.0565 0.01 12.7183 0 10.0002 0ZM10.0002 1.8C12.6696 1.8 12.9883 1.81313 14.0433 1.85813C15.0165 1.90375 15.5465 2.06625 15.8983 2.20375C16.3334 2.36433 16.7271 2.61991 17.0508 2.95188C17.3822 3.27427 17.6369 3.66709 17.7958 4.10125C17.9333 4.45312 18.0958 4.98312 18.1415 5.95625C18.1865 7.01125 18.1996 7.33062 18.1996 9.99937C18.1996 12.6681 18.1865 12.9875 18.1377 14.0425C18.0852 15.0156 17.9227 15.5456 17.7858 15.8975C17.5965 16.3669 17.3852 16.695 17.0365 17.05C16.7116 17.3799 16.3181 17.6342 15.884 17.795C15.5365 17.9325 14.999 18.095 14.0221 18.1406C12.9615 18.1856 12.649 18.1988 9.97272 18.1988C7.29647 18.1988 6.98459 18.1856 5.92271 18.1369C4.94959 18.0844 4.41272 17.9219 4.06084 17.785C3.58584 17.5956 3.26021 17.3844 2.91146 17.0356C2.55959 16.6837 2.33584 16.3488 2.16334 15.8831C2.02334 15.5356 1.86334 14.9981 1.81146 14.0213C1.77584 12.9731 1.75896 12.6481 1.75896 9.98438C1.75896 7.32188 1.77584 6.99625 1.81146 5.935C1.86334 4.95813 2.02334 4.42188 2.16334 4.07313C2.33584 3.5975 2.56021 3.2725 2.91146 2.92062C3.25959 2.5725 3.58584 2.3475 4.06084 2.17125C4.41272 2.03437 4.93647 1.87188 5.91334 1.82313C6.97397 1.785 7.28646 1.77125 9.95896 1.77125L10.0002 1.8ZM10.0002 4.86688C9.32605 4.86663 8.65845 4.99923 8.03556 5.25711C7.41267 5.51499 6.8467 5.89308 6.37 6.36978C5.89329 6.84649 5.5152 7.41246 5.25732 8.03535C4.99945 8.65824 4.86684 9.32584 4.86709 10C4.86684 10.6742 4.99945 11.3418 5.25732 11.9647C5.5152 12.5875 5.89329 13.1535 6.37 13.6302C6.8467 14.1069 7.41267 14.485 8.03556 14.7429C8.65845 15.0008 9.32605 15.1334 10.0002 15.1331C10.6744 15.1334 11.342 15.0008 11.9649 14.7429C12.5878 14.485 13.1537 14.1069 13.6304 13.6302C14.1071 13.1535 14.4852 12.5875 14.7431 11.9647C15.001 11.3418 15.1336 10.6742 15.1333 10C15.1336 9.32584 15.001 8.65824 14.7431 8.03535C14.4852 7.41246 14.1071 6.84649 13.6304 6.36978C13.1537 5.89308 12.5878 5.51499 11.9649 5.25711C11.342 4.99923 10.6744 4.86663 10.0002 4.86688V4.86688ZM10.0002 13.3331C8.15771 13.3331 6.66709 11.8425 6.66709 10C6.66709 8.1575 8.15771 6.66687 10.0002 6.66687C11.8427 6.66687 13.3333 8.1575 13.3333 10C13.3333 11.8425 11.8427 13.3331 10.0002 13.3331ZM16.5402 4.66188C16.5399 4.98042 16.4131 5.2858 16.1878 5.51092C15.9624 5.73605 15.6569 5.8625 15.3383 5.8625C15.1808 5.8625 15.0249 5.83148 14.8794 5.7712C14.7338 5.71093 14.6016 5.62258 14.4903 5.51121C14.3789 5.39984 14.2905 5.26762 14.2303 5.12211C14.17 4.97659 14.139 4.82063 14.139 4.66312C14.139 4.50562 14.17 4.34966 14.2303 4.20414C14.2905 4.05863 14.3789 3.92641 14.4903 3.81504C14.6016 3.70367 14.7338 3.61532 14.8794 3.55505C15.0249 3.49477 15.1808 3.46375 15.3383 3.46375C15.999 3.46375 16.5402 4.00125 16.5402 4.66188V4.66188Z" fill="white"/>
</svg>
